<svg xmlns="http://www.w3.org/2000/svg" viewBox="0 0 128 128">
  <defs>
    <linearGradient id="bg" x1="0" x2="1" y1="0" y2="1">
      <stop offset="0%" stop-color="#f7f0db"/>
      <stop offset="100%" stop-color="#d6b977"/>
    </linearGradient>
  </defs>
  <rect width="128" height="128" rx="28" fill="#1f2937"/>
  <rect x="8" y="8" width="112" height="112" rx="22" fill="url(#bg)"/>
  <circle cx="64" cy="68" r="30" fill="#cf8b42"/>
  <path d="M64 40c15 0 27 12 27 27 0 2-1 5-1 7-5-8-15-13-26-13-11 0-21 5-26 13 0-2-1-5-1-7 0-15 12-27 27-27z" fill="#e6838c"/>
  <circle cx="64" cy="68" r="13" fill="#f7f0db"/>
  <rect x="49" y="52" width="4" height="10" rx="2" fill="#fff4d6" transform="rotate(-20 51 57)"/>
  <rect x="74" y="56" width="4" height="10" rx="2" fill="#fff4d6" transform="rotate(24 76 61)"/>
  <rect x="58" y="84" width="4" height="10" rx="2" fill="#fff4d6" transform="rotate(14 60 89)"/>
  <rect x="82" y="72" width="4" height="10" rx="2" fill="#fff4d6" transform="rotate(-24 84 77)"/>
</svg>
